<?xml version="1.0" encoding="UTF-8"?>
<svg width="25px" height="24px" viewBox="0 0 25 24" version="1.1" xmlns="http://www.w3.org/2000/svg" xmlns:xlink="http://www.w3.org/1999/xlink">
    <title>icon_messages</title>
    <g id="Progetto_Instagram" stroke="none" stroke-width="1" fill="none" fill-rule="evenodd">
        <g id="Esercizio_1_Home" transform="translate(-69.000000, -685.000000)" fill="#1A1A1A" fill-rule="nonzero">
            <g id="post-1" transform="translate(0.000000, 237.000000)">
                <g id="icone" transform="translate(15.000000, 448.000000)">
                    <g id="icon_messages" transform="translate(54.000000, 0.000000)">
                        <path d="M0.750464747,24 C0.549464747,24 0.361464747,23.922 0.219464747,23.78 C-0.00453525272,23.556 -0.0635352527,23.214 0.0724647473,22.928 L2.98346475,16.815 C2.00946475,15.113 1.49746475,13.183 1.49946475,11.219 C1.50846475,5.033 6.54846475,0 12.7344647,0 L12.7694647,0 C14.8714647,0 16.9264647,0.587 18.7114647,1.697 C21.2634647,3.284 23.0444647,5.77 23.7264647,8.697 C24.4084647,11.624 23.9094647,14.641 22.3224647,17.192 C20.7354647,19.744 18.2494647,21.525 15.3234647,22.207 C14.4764647,22.405 13.6104647,22.505 12.7494647,22.505 L12.7494647,22.505 C10.8054647,22.505 8.88546475,21.991 7.18446475,21.016 L1.07246475,23.928 C0.971464747,23.975 0.860464747,24 0.750464747,24 Z M12.7344647,1.5 C7.37446475,1.5 3.00746475,5.861 2.99946475,11.221 C2.99646475,13.046 3.50546475,14.83 4.46946475,16.379 C4.60546475,16.598 4.62046475,16.866 4.50946475,17.098 L2.33546475,21.664 L6.90146475,19.489 C7.00046475,19.441 7.11246475,19.416 7.22346475,19.416 C7.36346475,19.416 7.50146475,19.455 7.62046475,19.53 C9.17146475,20.495 10.9454647,21.004 12.7504647,21.004 C13.4964647,21.004 14.2474647,20.917 14.9824647,20.746 C17.5184647,20.155 19.6724647,18.611 21.0484647,16.4 C22.4234647,14.188 22.8554647,11.573 22.2644647,9.037 C21.6734647,6.501 20.1294647,4.346 17.9184647,2.971 C16.3724647,2.009 14.5914647,1.5 12.7694647,1.5 C12.7654647,1.5 12.7344647,1.5 12.7344647,1.5 Z" id="Shape"></path>
                        <circle id="Oval" cx="8.24946475" cy="11.25" r="1.125"></circle>
                        <path d="M12.7504647,12.375 C12.1304647,12.375 11.6254647,11.87 11.6254647,11.25 C11.6254647,10.653 12.0924647,10.162 12.6904647,10.13 C12.6914647,10.13 12.7004647,10.128 12.7084647,10.128 C12.7224647,10.127 12.7384647,10.126 12.7504647,10.126 C13.3704647,10.126 13.8754647,10.631 13.8754647,11.251 C13.8754647,11.871 13.3704647,12.375 12.7504647,12.375 Z" id="Path"></path>
                        <circle id="Oval" cx="17.2504647" cy="11.25" r="1.125"></circle>
                    </g>
                </g>
            </g>
        </g>
    </g>
</svg>