<?xml version="1.0" encoding="UTF-8"?>
<svg width="3px" height="16px" viewBox="0 0 3 16" version="1.1" xmlns="http://www.w3.org/2000/svg" xmlns:xlink="http://www.w3.org/1999/xlink">
    <title>Combined Shape</title>
    <g id="Progetto_Instagram" stroke="none" stroke-width="1" fill="none" fill-rule="evenodd">
        <g id="Esercizio_1_Home" transform="translate(-357.000000, -249.000000)" fill="#8C8C8C">
            <g id="post-1" transform="translate(0.000000, 237.000000)">
                <g id="intestazione-post" transform="translate(15.000000, 0.000000)">
                    <path d="M343.5125,24.1000004 C344.347831,24.1000004 345.025,24.7771696 345.025,25.6125002 C345.025,26.4478307 344.347831,27.125 343.5125,27.125 C342.677169,27.125 342,26.4478307 342,25.6125002 C342,24.7771696 342.677169,24.1000004 343.5125,24.1000004 Z M343.5125,18.0500002 C344.347831,18.0500002 345.025,18.7271696 345.025,19.5625005 C345.025,20.3978313 344.347831,21.0750008 343.5125,21.0750008 C342.677169,21.0750008 342,20.3978313 342,19.5625005 C342,18.7271696 342.677169,18.0500002 343.5125,18.0500002 Z M343.5125,12 C344.347831,12 345.025,12.6771693 345.025,13.5125 C345.025,14.3478307 344.347831,15.0250001 343.5125,15.0250001 C342.677169,15.0250001 342,14.3478307 342,13.5125 C342,12.6771693 342.677169,12 343.5125,12 Z" id="Combined-Shape"></path>
                </g>
            </g>
        </g>
    </g>
</svg>