<?xml version="1.0" encoding="UTF-8"?>
<svg width="24px" height="24px" viewBox="0 0 24 24" version="1.1" xmlns="http://www.w3.org/2000/svg" xmlns:xlink="http://www.w3.org/1999/xlink">
    <title>icon_like</title>
    <g id="Progetto_Instagram" stroke="none" stroke-width="1" fill="none" fill-rule="evenodd">
        <g id="Esercizio_1_Home" transform="translate(-15.000000, -685.000000)" fill="#1A1A1A" fill-rule="nonzero">
            <g id="post-1" transform="translate(0.000000, 237.000000)">
                <g id="icone" transform="translate(15.000000, 448.000000)">
                    <g id="icon_like" transform="translate(0.000000, 0.000000)">
                        <path d="M12.089,24 C11.462,24 10.838,23.912 10.236,23.74 L6.602,22.702 C6.405,22.646 6.203,22.601 6,22.568 L6,23.25 C6,23.664 5.664,24 5.25,24 L0.75,24 C0.336,24 0,23.664 0,23.25 L0,9.75 C0,9.336 0.336,9 0.75,9 L5.25,9 C5.664,9 6,9.336 6,9.75 L6,11.262 C9.395,10.887 12,8.013 12,4.554 L12,3 C12,1.346 13.346,0 15,0 C16.654,0 18,1.346 18,3 L18,6.382 C18,6.728 18.234,7.027 18.57,7.11 L20.005,7.423 C22.448,8.035 24.121,10.29 23.994,12.788 L23.693,17.894 C23.343,21.382 20.455,24 16.974,24 L12.089,24 Z M6,21.053 C6.342,21.096 6.682,21.165 7.014,21.26 L10.648,22.298 C11.116,22.432 11.601,22.5 12.089,22.5 L16.974,22.5 C19.681,22.5 21.927,20.469 22.198,17.775 L22.496,12.706 C22.586,10.927 21.395,9.318 19.662,8.883 L18.229,8.57 C17.207,8.318 16.5,7.419 16.5,6.382 L16.5,3 C16.5,2.173 15.827,1.5 15,1.5 C14.173,1.5 13.5,2.173 13.5,3 L13.5,4.554 C13.5,8.847 10.234,12.39 6,12.77 L6,21.053 Z M4.5,22.5 L4.5,10.5 L1.5,10.5 L1.5,22.5 L4.5,22.5 Z" id="Shape"></path>
                    </g>
                </g>
            </g>
        </g>
    </g>
</svg>