<?xml version="1.0" encoding="UTF-8"?>
<svg width="24px" height="24px" viewBox="0 0 24 24" version="1.1" xmlns="http://www.w3.org/2000/svg" xmlns:xlink="http://www.w3.org/1999/xlink">
    <title>icon_email</title>
    <g id="Progetto_Instagram" stroke="none" stroke-width="1" fill="none" fill-rule="evenodd">
        <g id="Esercizio_1_Home" transform="translate(-123.000000, -685.000000)" fill="#1A1A1A" fill-rule="nonzero">
            <g id="post-1" transform="translate(0.000000, 237.000000)">
                <g id="icone" transform="translate(15.000000, 448.000000)">
                    <g id="icon_email" transform="translate(108.000000, 0.000000)">
                        <path d="M14.835431,23.578 C14.595431,23.578 14.356431,23.539 14.126431,23.462 C13.420431,23.227 12.880431,22.659 12.680431,21.942 L10.535431,13.032 C10.535431,13.032 1.636431,10.897 1.631431,10.896 C1.056431,10.734 0.578430997,10.357 0.286430997,9.836 C-0.00556900316,9.314 -0.0775690032,8.711 0.0854309968,8.135 C0.286430997,7.423 0.825430997,6.857 1.527431,6.621 L21.604431,0.073 C21.753431,0.024 21.907431,0 22.063431,0 C22.429431,0 22.780431,0.134 23.058431,0.378 C23.080431,0.392 23.106431,0.411 23.132431,0.437 C23.146431,0.452 23.163431,0.472 23.177431,0.493 C23.318431,0.643 23.430431,0.83 23.496431,1.035 C23.594431,1.337 23.595431,1.656 23.499431,1.958 L16.957431,22.043 C16.767431,22.614 16.368431,23.074 15.834431,23.341 C15.519431,23.498 15.183431,23.578 14.835431,23.578 Z M14.131431,21.566 C14.191431,21.777 14.372431,21.963 14.600431,22.04 C14.676431,22.065 14.755431,22.078 14.834431,22.078 C14.948431,22.078 15.059431,22.052 15.163431,22 C15.339431,21.912 15.470431,21.761 15.532431,21.574 L21.561431,3.067 L11.984431,12.643 L14.131431,21.566 Z M1.998431,8.046 C1.771431,8.122 1.595431,8.308 1.528431,8.543 C1.418431,8.932 1.645431,9.339 2.033431,9.451 L10.923431,11.583 L20.491431,2.015 L1.998431,8.046 Z" id="Shape"></path>
                    </g>
                </g>
            </g>
        </g>
    </g>
</svg>