<?xml version="1.0" encoding="UTF-8"?>
<svg width="24px" height="24px" viewBox="0 0 24 24" version="1.1" xmlns="http://www.w3.org/2000/svg" xmlns:xlink="http://www.w3.org/1999/xlink">
    <title>add</title>
    <g id="Progetto_Instagram" stroke="none" stroke-width="1" fill="none" fill-rule="evenodd">
        <g id="Esercizio_1_Home" transform="translate(-175.000000, -921.000000)" fill="#1A1A1A" fill-rule="nonzero">
            <g id="TabBar" transform="translate(0.000000, 905.000000)">
                <g id="add" transform="translate(175.000000, 16.000000)">
                    <path d="M12,17.25 C11.586,17.25 11.25,16.914 11.25,16.5 L11.25,12.75 L7.5,12.75 C7.086,12.75 6.75,12.414 6.75,12 C6.75,11.586 7.086,11.25 7.5,11.25 L11.25,11.25 L11.25,7.5 C11.25,7.086 11.586,6.75 12,6.75 C12.414,6.75 12.75,7.086 12.75,7.5 L12.75,11.25 L16.5,11.25 C16.914,11.25 17.25,11.586 17.25,12 C17.25,12.414 16.914,12.75 16.5,12.75 L12.75,12.75 L12.75,16.5 C12.75,16.914 12.414,17.25 12,17.25 Z" id="Path"></path>
                    <path d="M12,24 C5.383,24 0,18.617 0,12 C0,5.383 5.383,0 12,0 C18.617,0 24,5.383 24,12 C24,18.617 18.617,24 12,24 Z M12,1.5 C6.21,1.5 1.5,6.21 1.5,12 C1.5,17.79 6.21,22.5 12,22.5 C17.79,22.5 22.5,17.79 22.5,12 C22.5,6.21 17.79,1.5 12,1.5 Z" id="Shape"></path>
                </g>
            </g>
        </g>
    </g>
</svg>