<?xml version="1.0" encoding="UTF-8"?>
<svg width="170px" height="36px" viewBox="0 0 170 36" version="1.1" xmlns="http://www.w3.org/2000/svg" xmlns:xlink="http://www.w3.org/1999/xlink">
    <title>logo</title>
    <g id="Progetto_Instagram" stroke="none" stroke-width="1" fill="none" fill-rule="evenodd">
        <g id="Esercizio_1_Home" transform="translate(-15.000000, -55.000000)" fill-rule="nonzero">
            <g id="logo" transform="translate(15.000000, 55.000000)">
                <ellipse id="Oval" fill="#97D700" cx="8.55631768" cy="8.45256696" rx="8.55631768" ry="8.45256696"></ellipse>
                <ellipse id="Oval" fill="#97D700" cx="8.55631768" cy="26.609933" rx="8.55631768" ry="8.45256696"></ellipse>
                <rect id="Rectangle" fill="#97D700" x="18.3718946" y="0.626116071" width="17.1126354" height="16.9051339"></rect>
                <polygon id="Path" fill="#97D700" points="18.3718946 17.53125 35.48453 17.53125 18.3718946 34.4363839"></polygon>
                <polygon id="Path" fill="#1A1A1A" points="45.1773574 24.4133638 56.6496681 24.4133638 56.6496681 21.3272302 48.9664371 21.3272302 48.9664371 6.70909041 45.1773574 6.70909041"></polygon>
                <path d="M64.4225694,24.6727224 C68.5005104,24.6727224 71.0383142,21.9150555 71.0383142,17.8261432 C71.0383142,13.7112645 68.5005104,10.9622531 64.4225694,10.9622531 C60.3449706,10.9622531 57.8071668,13.7112645 57.8071668,17.8261432 C57.8071668,21.9150555 60.3449706,24.6727224 64.4225694,24.6727224 Z M64.4400242,21.819981 C62.5586611,21.819981 61.5962465,20.1169579 61.5962465,17.8002107 C61.5962465,15.4834297 62.5586611,13.7717849 64.4400242,13.7717849 C66.2864776,13.7717849 67.2492345,15.4834297 67.2492345,17.8002107 C67.2492345,20.1169579 66.2864776,21.819981 64.4400242,21.819981 Z" id="Shape" fill="#1A1A1A"></path>
                <path d="M78.7783592,29.669339 C82.6201458,29.669339 85.3502956,27.9403834 85.3502956,24.5430262 L85.3502956,11.1351588 L81.6488326,11.1351588 L81.6488326,13.3654869 L81.5088513,13.3654869 C81.0098468,12.2849107 79.9160072,10.9622531 77.6670646,10.9622531 C74.7182153,10.9622531 72.2242198,13.2271691 72.2242198,17.7483119 C72.2242198,22.1657587 74.6480535,24.2231811 77.6759632,24.2231811 C79.8198341,24.2231811 81.0187454,23.159882 81.5088513,22.0620288 L81.6662875,22.0620288 L81.6662875,24.4911613 C81.6662875,26.3151914 80.4848312,27.0240575 78.8659759,27.0240575 C77.2207671,27.0240575 76.3894353,26.3151914 76.0831191,25.5112509 L72.6356076,25.9694138 C73.0819051,28.0614241 75.1556143,29.669339 78.7783592,29.669339 Z M78.8574195,21.4568926 C77.0284211,21.4568926 76.0307544,20.0218834 76.0307544,17.7310349 C76.0307544,15.4747743 77.0109662,13.8927918 78.8574195,13.8927918 C80.6686209,13.8927918 81.6837424,15.4056323 81.6837424,17.7310349 C81.6837424,20.0737483 80.651166,21.4568926 78.8574195,21.4568926 Z" id="Shape" fill="#1A1A1A"></path>
                <path d="M93.6506083,24.6727224 C97.7285493,24.6727224 100.266353,21.9150555 100.266353,17.8261432 C100.266353,13.7112645 97.7285493,10.9622531 93.6506083,10.9622531 C89.5726673,10.9622531 87.0352057,13.7112645 87.0352057,17.8261432 C87.0352057,21.9150555 89.5726673,24.6727224 93.6506083,24.6727224 Z M93.6680632,21.819981 C91.7867001,21.819981 90.8242854,20.1169579 90.8242854,17.8002107 C90.8242854,15.4834297 91.7867001,13.7717849 93.6680632,13.7717849 C95.5145165,13.7717849 96.4772734,15.4834297 96.4772734,17.8002107 C96.4772734,20.1169579 95.5145165,21.819981 93.6680632,21.819981 Z" id="Shape" fill="#1A1A1A"></path>
                <path d="M101.950921,24.4133638 L105.678737,24.4133638 L105.678737,11.1351588 L101.950921,11.1351588 L101.950921,24.4133638 Z M103.823728,9.42351396 C104.935022,9.42351396 105.845072,8.5849855 105.845072,7.55627429 C105.845072,6.5361847 104.935022,5.69765625 103.823728,5.69765625 C102.72099,5.69765625 101.81094,6.5361847 101.81094,7.55627429 C101.81094,8.5849855 102.72099,9.42351396 103.823728,9.42351396 Z" id="Shape" fill="#1A1A1A"></path>
                <path d="M107.925626,29.3927034 L111.653443,29.3927034 L111.653443,22.2867656 L111.767413,22.2867656 C112.28353,23.3933081 113.41228,24.6294791 115.582504,24.6294791 C118.645324,24.6294791 121.034247,22.2349007 121.034247,17.7915553 C121.034247,13.2271691 118.540252,10.9622531 115.591403,10.9622531 C113.34246,10.9622531 112.266075,12.2849107 111.767413,13.3654869 L111.601078,13.3654869 L111.601078,11.1351588 L107.925626,11.1351588 L107.925626,29.3927034 Z M111.574725,17.7742782 C111.574725,15.4056323 112.589846,13.8927918 114.40139,13.8927918 C116.247843,13.8927918 117.227713,15.4747743 117.227713,17.7742782 C117.227713,20.0910254 116.230046,21.6989403 114.40139,21.6989403 C112.607301,21.6989403 111.574725,20.1428903 111.574725,17.7742782 Z" id="Shape" fill="#1A1A1A"></path>
                <path d="M133.96387,14.9215369 C133.631201,12.4750935 131.63621,10.9622531 128.24072,10.9622531 C124.801765,10.9622531 122.535368,12.5355801 122.543924,15.0944088 C122.535368,17.0826892 123.804099,18.370759 126.429519,18.8894085 L128.75718,19.3476052 C129.929738,19.5809975 130.463652,20.0045725 130.481107,20.6702291 C130.463652,21.4568926 129.597068,22.0187854 128.293427,22.0187854 C126.963091,22.0187854 126.079395,21.4568926 125.851797,20.3763164 L122.185243,20.5664992 C122.535368,23.108017 124.723047,24.6727224 128.284529,24.6727224 C131.767292,24.6727224 134.261288,22.9178343 134.270186,20.298519 C134.261288,18.3793806 132.992557,17.2296624 130.384591,16.7023237 L127.951859,16.2182282 C126.700583,15.9502481 126.236831,15.5266392 126.245729,14.886949 C126.236831,14.09163 127.146881,13.5729467 128.301984,13.5729467 C129.597068,13.5729467 130.367136,14.2731573 130.550926,15.1289967 L133.96387,14.9215369 Z" id="Path" fill="#1A1A1A"></path>
                <path d="M144.497724,18.7597461 C144.506623,20.5405667 143.272459,21.4741696 141.933909,21.4741696 C140.524855,21.4741696 139.614805,20.4973234 139.605906,18.9326518 L139.605906,11.1351588 L135.87809,11.1351588 L135.87809,19.5896529 C135.886988,22.6930636 137.724543,24.5862695 140.428682,24.5862695 C142.450026,24.5862695 143.902547,23.5575583 144.506623,22.0015084 L144.646604,22.0015084 L144.646604,24.4133638 L148.225541,24.4133638 L148.225541,11.1351588 L144.497724,11.1351588 L144.497724,18.7597461 Z" id="Path" fill="#1A1A1A"></path>
                <path d="M150.46798,24.4133638 L154.196139,24.4133638 L154.196139,16.4429989 C154.196139,14.9734018 155.141099,13.9965555 156.383818,13.9965555 C157.608741,13.9965555 158.431516,14.8264286 158.431516,16.1317754 L158.431516,24.4133638 L162.045363,24.4133638 L162.045363,16.3046811 C162.045363,14.9301585 162.841785,13.9965555 164.198132,13.9965555 C165.388145,13.9965555 166.28074,14.7313541 166.28074,16.2095728 L166.28074,24.4133638 L170,24.4133638 L170,15.4834297 C170,12.6047559 168.267175,10.9622531 165.764623,10.9622531 C163.795643,10.9622531 162.264062,11.9564102 161.713035,13.4778722 L161.572712,13.4778722 C161.144211,11.9390993 159.770067,10.9622531 157.923955,10.9622531 C156.112412,10.9622531 154.73861,11.9131668 154.178342,13.4778722 L154.020906,13.4778722 L154.020906,11.1351588 L150.46798,11.1351588 L150.46798,24.4133638 Z" id="Path" fill="#1A1A1A"></path>
            </g>
        </g>
    </g>
</svg>